<?xml version="1.0" encoding="UTF-8" standalone="no"?>
<!DOCTYPE svg PUBLIC "-//W3C//DTD SVG 1.1//EN"
 "http://www.w3.org/Graphics/SVG/1.1/DTD/svg11.dtd">
<!-- Generated by graphviz version 9.0.0 (20230911.1827)
 -->
<!-- Title: tree Pages: 1 -->
<svg width="296pt" height="296pt"
 viewBox="0.00 0.00 296.00 296.00" xmlns="http://www.w3.org/2000/svg" xmlns:xlink="http://www.w3.org/1999/xlink">
<g id="graph0" class="graph" transform="scale(1 1) rotate(0) translate(4 292)">
<title>tree</title>
<polygon fill="#2a2a2a" stroke="none" points="-4,4 -4,-292 292,-292 292,4 -4,4"/>
<!-- Develop -->
<g id="node1" class="node">
<title>Develop</title>
<ellipse fill="white" stroke="black" cx="144" cy="-252" rx="36" ry="36"/>
<text text-anchor="middle" x="144" y="-246.95"  font-size="14.00">Develop</text>
</g>
<!-- Become
A BUG -->
<g id="node2" class="node">
<title>Become
A BUG</title>
<ellipse fill="white" stroke="black" cx="90" cy="-144" rx="36" ry="36"/>
<text text-anchor="middle" x="90" y="-147.2"  font-size="14.00">Become</text>
<text text-anchor="middle" x="90" y="-130.7"   font-size="14.00">A BUG</text>
</g>
<!-- Develop&#45;&gt;Become
A BUG -->
<g id="edge1" class="edge">
<title>Develop&#45;&gt;Become
A BUG</title>
<path fill="none" stroke="#b3b3b3" d="M127.94,-219.48C122.71,-209.22 116.82,-197.66 111.27,-186.76"/>
<polygon fill="#b3b3b3" stroke="#b3b3b3" points="114.43,-185.25 106.77,-177.93 108.19,-188.43 114.43,-185.25"/>
</g>
<!-- Become
DA BUG -->
<g id="node5" class="node">
<title>Become
DA BUG</title>
<ellipse fill="white" stroke="black" cx="198" cy="-144" rx="36" ry="36"/>
<text text-anchor="middle" x="198" y="-147.2"   font-size="14.00">Become</text>
<text text-anchor="middle" x="198" y="-130.7"   font-size="14.00">DA BUG</text>
</g>
<!-- Develop&#45;&gt;Become
DA BUG -->
<g id="edge4" class="edge">
<title>Develop&#45;&gt;Become
DA BUG</title>
<path fill="none" stroke="#b3b3b3" d="M160.06,-219.48C165.29,-209.22 171.18,-197.66 176.73,-186.76"/>
<polygon fill="#b3b3b3" stroke="#b3b3b3" points="179.81,-188.43 181.23,-177.93 173.57,-185.25 179.81,-188.43"/>
</g>
<!-- Manifest
Antennae -->
<g id="node3" class="node">
<title>Manifest
Antennae</title>
<ellipse fill="white" stroke="black" cx="36" cy="-36" rx="36" ry="36"/>
<text text-anchor="middle" x="36" y="-39.2"   font-size="14.00">Manifest</text>
<text text-anchor="middle" x="36" y="-22.7"   font-size="14.00">Antennae</text>
</g>
<!-- Become
A BUG&#45;&gt;Manifest
Antennae -->
<g id="edge2" class="edge">
<title>Become
A BUG&#45;&gt;Manifest
Antennae</title>
<path fill="none" stroke="#b3b3b3" d="M73.94,-111.48C68.71,-101.22 62.82,-89.66 57.27,-78.76"/>
<polygon fill="#b3b3b3" stroke="#b3b3b3" points="60.43,-77.25 52.77,-69.93 54.19,-80.43 60.43,-77.25"/>
</g>
<!-- Do
BUG&#45;stuff -->
<g id="node4" class="node">
<title>Do
BUG&#45;stuff</title>
<ellipse fill="white" stroke="black" cx="144" cy="-36" rx="36" ry="36"/>
<text text-anchor="middle" x="144" y="-39.2"   font-size="14.00">Do</text>
<text text-anchor="middle" x="144" y="-22.7"   font-size="14.00">BUG&#45;stuff</text>
</g>
<!-- Become
A BUG&#45;&gt;Do
BUG&#45;stuff -->
<g id="edge3" class="edge">
<title>Become
A BUG&#45;&gt;Do
BUG&#45;stuff</title>
<path fill="none" stroke="#b3b3b3" d="M106.06,-111.48C111.29,-101.22 117.18,-89.66 122.73,-78.76"/>
<polygon fill="#b3b3b3" stroke="#b3b3b3" points="125.81,-80.43 127.23,-69.93 119.57,-77.25 125.81,-80.43"/>
</g>
</g>
</svg>
