<?xml version="1.0" encoding="UTF-8" standalone="no"?>
<!DOCTYPE svg PUBLIC "-//W3C//DTD SVG 1.1//EN"
 "http://www.w3.org/Graphics/SVG/1.1/DTD/svg11.dtd">
<!-- Generated by graphviz version 9.0.0 (20230911.1827)
 -->
<!-- Title: tree Pages: 1 -->
<svg width="432pt" height="432pt"
 viewBox="0.00 0.00 432.00 432.00" xmlns="http://www.w3.org/2000/svg" xmlns:xlink="http://www.w3.org/1999/xlink">
<g id="graph0" class="graph" transform="scale(0.981818 0.981818) rotate(0) translate(4 436)">
<title>tree</title>
<polygon fill="#2a2a2a" stroke="none" points="-4,4 -4,-436 436,-436 436,4 -4,4"/>
<!-- Develop -->
<g id="node1" class="node">
<title>Develop</title>
<ellipse fill="white" stroke="black" cx="263.04" cy="-378" rx="36" ry="36"/>
<text text-anchor="middle" x="263.04" y="-372.95" font-family="Times,serif" font-size="14.00">Develop</text>
</g>
<!-- Become
A BUG -->
<g id="node2" class="node">
<title>Become
A BUG</title>
<ellipse fill="white" stroke="black" cx="169.04" cy="-216" rx="36" ry="36"/>
<text text-anchor="middle" x="169.04" y="-219.2" font-family="Times,serif" font-size="14.00">Become</text>
<text text-anchor="middle" x="169.04" y="-202.7" font-family="Times,serif" font-size="14.00">A BUG</text>
</g>
<!-- Develop&#45;&gt;Become
A BUG -->
<g id="edge1" class="edge">
<title>Develop&#45;&gt;Become
A BUG</title>
<path fill="none" stroke="white" d="M245.14,-346.53C230.29,-321.25 209.05,-285.1 192.79,-257.41"/>
<polygon fill="white" stroke="white" points="195.89,-255.78 187.81,-248.94 189.85,-259.33 195.89,-255.78"/>
</g>
<!-- Become
DA BUG -->
<g id="node5" class="node">
<title>Become
DA BUG</title>
<ellipse fill="white" stroke="black" cx="357.04" cy="-216" rx="36" ry="36"/>
<text text-anchor="middle" x="357.04" y="-219.2" font-family="Times,serif" font-size="14.00">Become</text>
<text text-anchor="middle" x="357.04" y="-202.7" font-family="Times,serif" font-size="14.00">DA BUG</text>
</g>
<!-- Develop&#45;&gt;Become
DA BUG -->
<g id="edge4" class="edge">
<title>Develop&#45;&gt;Become
DA BUG</title>
<path fill="none" stroke="white" d="M280.95,-346.53C295.79,-321.25 317.03,-285.1 333.3,-257.41"/>
<polygon fill="white" stroke="white" points="336.23,-259.33 338.28,-248.94 330.2,-255.78 336.23,-259.33"/>
</g>
<!-- Manifest
Antennae -->
<g id="node3" class="node">
<title>Manifest
Antennae</title>
<ellipse fill="white" stroke="black" cx="75.04" cy="-54" rx="36" ry="36"/>
<text text-anchor="middle" x="75.04" y="-57.2" font-family="Times,serif" font-size="14.00">Manifest</text>
<text text-anchor="middle" x="75.04" y="-40.7" font-family="Times,serif" font-size="14.00">Antennae</text>
</g>
<!-- Become
A BUG&#45;&gt;Manifest
Antennae -->
<g id="edge2" class="edge">
<title>Become
A BUG&#45;&gt;Manifest
Antennae</title>
<path fill="none" stroke="white" d="M151.14,-184.53C136.29,-159.25 115.05,-123.1 98.79,-95.41"/>
<polygon fill="white" stroke="white" points="101.89,-93.78 93.81,-86.94 95.85,-97.33 101.89,-93.78"/>
</g>
<!-- Do
BUG&#45;stuff -->
<g id="node4" class="node">
<title>Do
BUG&#45;stuff</title>
<ellipse fill="white" stroke="black" cx="263.04" cy="-54" rx="36" ry="36"/>
<text text-anchor="middle" x="263.04" y="-57.2" font-family="Times,serif" font-size="14.00">Do</text>
<text text-anchor="middle" x="263.04" y="-40.7" font-family="Times,serif" font-size="14.00">BUG&#45;stuff</text>
</g>
<!-- Become
A BUG&#45;&gt;Do
BUG&#45;stuff -->
<g id="edge3" class="edge">
<title>Become
A BUG&#45;&gt;Do
BUG&#45;stuff</title>
<path fill="none" stroke="white" d="M186.95,-184.53C201.79,-159.25 223.03,-123.1 239.3,-95.41"/>
<polygon fill="white" stroke="white" points="242.23,-97.33 244.28,-86.94 236.2,-93.78 242.23,-97.33"/>
</g>
</g>
</svg>
