<?xml version="1.0" encoding="UTF-8" standalone="no"?>
<!DOCTYPE svg PUBLIC "-//W3C//DTD SVG 1.1//EN"
 "http://www.w3.org/Graphics/SVG/1.1/DTD/svg11.dtd">
<!-- Generated by graphviz version 9.0.0 (20230911.1827)
 -->
<!-- Title: tree Pages: 1 -->
<svg width="432pt" height="432pt"
 viewBox="0.00 0.00 432.00 432.00" xmlns="http://www.w3.org/2000/svg" xmlns:xlink="http://www.w3.org/1999/xlink">
<g id="graph0" class="graph" transform="scale(0.981818 0.981818) rotate(0) translate(4 436)">
<title>tree</title>
<polygon fill="#2a2a2a" stroke="none" points="-4,4 -4,-436 436,-436 436,4 -4,4"/>
<!-- Develop -->
<g id="node1" class="node">
<title>Develop</title>
<ellipse fill="white" stroke="black" cx="216" cy="-346" rx="36" ry="36"/>
<text text-anchor="middle" x="216" y="-340.95" font-family="Times,serif" font-size="14.00">Develop</text>
</g>
<!-- Become
A BUG -->
<g id="node2" class="node">
<title>Become
A BUG</title>
<ellipse fill="white" stroke="black" cx="96" cy="-86" rx="36" ry="36"/>
<text text-anchor="middle" x="96" y="-89.2" font-family="Times,serif" font-size="14.00">Become</text>
<text text-anchor="middle" x="96" y="-72.7" font-family="Times,serif" font-size="14.00">A BUG</text>
</g>
<!-- Develop&#45;&gt;Become
A BUG -->
<g id="edge1" class="edge">
<title>Develop&#45;&gt;Become
A BUG</title>
<path fill="none" stroke="white" d="M201.04,-312.85C179.47,-266.47 139.59,-180.73 115.66,-129.28"/>
<polygon fill="white" stroke="white" points="118.98,-128.12 111.59,-120.53 112.64,-131.07 118.98,-128.12"/>
</g>
<!-- Become
DA BUG -->
<g id="node3" class="node">
<title>Become
DA BUG</title>
<ellipse fill="white" stroke="black" cx="336" cy="-86" rx="36" ry="36"/>
<text text-anchor="middle" x="336" y="-89.2" font-family="Times,serif" font-size="14.00">Become</text>
<text text-anchor="middle" x="336" y="-72.7" font-family="Times,serif" font-size="14.00">DA BUG</text>
</g>
<!-- Develop&#45;&gt;Become
DA BUG -->
<g id="edge2" class="edge">
<title>Develop&#45;&gt;Become
DA BUG</title>
<path fill="none" stroke="white" d="M230.96,-312.85C252.53,-266.47 292.41,-180.73 316.34,-129.28"/>
<polygon fill="white" stroke="white" points="319.36,-131.07 320.41,-120.53 313.02,-128.12 319.36,-131.07"/>
</g>
</g>
</svg>
